<svg width="129" height="20" viewBox="0 0 129 20" fill="none" xmlns="http://www.w3.org/2000/svg">
<path d="M12.978 2.364L8.496 15H4.644L0.162 2.364H3.438L6.57 11.904L9.72 2.364H12.978ZM15.8124 3.912C15.2724 3.912 14.8284 3.756 14.4804 3.444C14.1444 3.12 13.9764 2.724 13.9764 2.256C13.9764 1.776 14.1444 1.38 14.4804 1.068C14.8284 0.743999 15.2724 0.581999 15.8124 0.581999C16.3404 0.581999 16.7724 0.743999 17.1084 1.068C17.4564 1.38 17.6304 1.776 17.6304 2.256C17.6304 2.724 17.4564 3.12 17.1084 3.444C16.7724 3.756 16.3404 3.912 15.8124 3.912ZM17.3424 4.956V15H14.2644V4.956H17.3424ZM23.659 15.144C22.783 15.144 22.003 14.994 21.319 14.694C20.635 14.394 20.095 13.986 19.699 13.47C19.303 12.942 19.081 12.354 19.033 11.706H22.075C22.111 12.054 22.273 12.336 22.561 12.552C22.849 12.768 23.203 12.876 23.623 12.876C24.007 12.876 24.301 12.804 24.505 12.66C24.721 12.504 24.829 12.306 24.829 12.066C24.829 11.778 24.679 11.568 24.379 11.436C24.079 11.292 23.593 11.136 22.921 10.968C22.201 10.8 21.601 10.626 21.121 10.446C20.641 10.254 20.227 9.96 19.879 9.564C19.531 9.156 19.357 8.61 19.357 7.926C19.357 7.35 19.513 6.828 19.825 6.36C20.149 5.88 20.617 5.502 21.229 5.226C21.853 4.95 22.591 4.812 23.443 4.812C24.703 4.812 25.693 5.124 26.413 5.748C27.145 6.372 27.565 7.2 27.673 8.232H24.829C24.781 7.884 24.625 7.608 24.361 7.404C24.109 7.2 23.773 7.098 23.353 7.098C22.993 7.098 22.717 7.17 22.525 7.314C22.333 7.446 22.237 7.632 22.237 7.872C22.237 8.16 22.387 8.376 22.687 8.52C22.999 8.664 23.479 8.808 24.127 8.952C24.871 9.144 25.477 9.336 25.945 9.528C26.413 9.708 26.821 10.008 27.169 10.428C27.529 10.836 27.715 11.388 27.727 12.084C27.727 12.672 27.559 13.2 27.223 13.668C26.899 14.124 26.425 14.484 25.801 14.748C25.189 15.012 24.475 15.144 23.659 15.144ZM31.1581 3.912C30.6181 3.912 30.1741 3.756 29.8261 3.444C29.4901 3.12 29.3221 2.724 29.3221 2.256C29.3221 1.776 29.4901 1.38 29.8261 1.068C30.1741 0.743999 30.6181 0.581999 31.1581 0.581999C31.6861 0.581999 32.1181 0.743999 32.4541 1.068C32.8021 1.38 32.9761 1.776 32.9761 2.256C32.9761 2.724 32.8021 3.12 32.4541 3.444C32.1181 3.756 31.6861 3.912 31.1581 3.912ZM32.6881 4.956V15H29.6101V4.956H32.6881ZM39.4907 15.144C38.5067 15.144 37.6187 14.934 36.8267 14.514C36.0467 14.094 35.4287 13.494 34.9727 12.714C34.5287 11.934 34.3067 11.022 34.3067 9.978C34.3067 8.946 34.5347 8.04 34.9907 7.26C35.4467 6.468 36.0707 5.862 36.8627 5.442C37.6547 5.022 38.5427 4.812 39.5267 4.812C40.5107 4.812 41.3987 5.022 42.1907 5.442C42.9827 5.862 43.6067 6.468 44.0627 7.26C44.5187 8.04 44.7467 8.946 44.7467 9.978C44.7467 11.01 44.5127 11.922 44.0447 12.714C43.5887 13.494 42.9587 14.094 42.1547 14.514C41.3627 14.934 40.4747 15.144 39.4907 15.144ZM39.4907 12.48C40.0787 12.48 40.5767 12.264 40.9847 11.832C41.4047 11.4 41.6147 10.782 41.6147 9.978C41.6147 9.174 41.4107 8.556 41.0027 8.124C40.6067 7.692 40.1147 7.476 39.5267 7.476C38.9267 7.476 38.4287 7.692 38.0327 8.124C37.6367 8.544 37.4387 9.162 37.4387 9.978C37.4387 10.782 37.6307 11.4 38.0147 11.832C38.4107 12.264 38.9027 12.48 39.4907 12.48ZM52.4997 4.848C53.6757 4.848 54.6117 5.232 55.3077 6C56.0157 6.756 56.3697 7.8 56.3697 9.132V15H53.3097V9.546C53.3097 8.874 53.1357 8.352 52.7877 7.98C52.4397 7.608 51.9717 7.422 51.3837 7.422C50.7957 7.422 50.3277 7.608 49.9797 7.98C49.6317 8.352 49.4577 8.874 49.4577 9.546V15H46.3797V4.956H49.4577V6.288C49.7697 5.844 50.1897 5.496 50.7177 5.244C51.2457 4.98 51.8397 4.848 52.4997 4.848ZM61.801 8.664C61.801 7.416 62.071 6.306 62.611 5.334C63.151 4.35 63.901 3.588 64.861 3.048C65.833 2.496 66.931 2.22 68.155 2.22C69.655 2.22 70.939 2.616 72.007 3.408C73.075 4.2 73.789 5.28 74.149 6.648H70.765C70.513 6.12 70.153 5.718 69.685 5.442C69.229 5.166 68.707 5.028 68.119 5.028C67.171 5.028 66.403 5.358 65.815 6.018C65.227 6.678 64.933 7.56 64.933 8.664C64.933 9.768 65.227 10.65 65.815 11.31C66.403 11.97 67.171 12.3 68.119 12.3C68.707 12.3 69.229 12.162 69.685 11.886C70.153 11.61 70.513 11.208 70.765 10.68H74.149C73.789 12.048 73.075 13.128 72.007 13.92C70.939 14.7 69.655 15.09 68.155 15.09C66.931 15.09 65.833 14.82 64.861 14.28C63.901 13.728 63.151 12.966 62.611 11.994C62.071 11.022 61.801 9.912 61.801 8.664ZM75.422 9.96C75.422 8.928 75.614 8.022 75.998 7.242C76.394 6.462 76.928 5.862 77.6 5.442C78.272 5.022 79.022 4.812 79.85 4.812C80.558 4.812 81.176 4.956 81.704 5.244C82.244 5.532 82.658 5.91 82.946 6.378V4.956H86.024V15H82.946V13.578C82.646 14.046 82.226 14.424 81.686 14.712C81.158 15 80.54 15.144 79.832 15.144C79.016 15.144 78.272 14.934 77.6 14.514C76.928 14.082 76.394 13.476 75.998 12.696C75.614 11.904 75.422 10.992 75.422 9.96ZM82.946 9.978C82.946 9.21 82.73 8.604 82.298 8.16C81.878 7.716 81.362 7.494 80.75 7.494C80.138 7.494 79.616 7.716 79.184 8.16C78.764 8.592 78.554 9.192 78.554 9.96C78.554 10.728 78.764 11.34 79.184 11.796C79.616 12.24 80.138 12.462 80.75 12.462C81.362 12.462 81.878 12.24 82.298 11.796C82.73 11.352 82.946 10.746 82.946 9.978ZM91.3288 6.378C91.6288 5.91 92.0428 5.532 92.5708 5.244C93.0988 4.956 93.7168 4.812 94.4248 4.812C95.2528 4.812 96.0028 5.022 96.6748 5.442C97.3468 5.862 97.8748 6.462 98.2588 7.242C98.6548 8.022 98.8528 8.928 98.8528 9.96C98.8528 10.992 98.6548 11.904 98.2588 12.696C97.8748 13.476 97.3468 14.082 96.6748 14.514C96.0028 14.934 95.2528 15.144 94.4248 15.144C93.7288 15.144 93.1108 15 92.5708 14.712C92.0428 14.424 91.6288 14.052 91.3288 13.596V19.788H88.2508V4.956H91.3288V6.378ZM95.7208 9.96C95.7208 9.192 95.5048 8.592 95.0728 8.16C94.6528 7.716 94.1308 7.494 93.5068 7.494C92.8948 7.494 92.3728 7.716 91.9408 8.16C91.5208 8.604 91.3108 9.21 91.3108 9.978C91.3108 10.746 91.5208 11.352 91.9408 11.796C92.3728 12.24 92.8948 12.462 93.5068 12.462C94.1188 12.462 94.6408 12.24 95.0728 11.796C95.5048 11.34 95.7208 10.728 95.7208 9.96ZM102.016 3.912C101.476 3.912 101.032 3.756 100.684 3.444C100.348 3.12 100.18 2.724 100.18 2.256C100.18 1.776 100.348 1.38 100.684 1.068C101.032 0.743999 101.476 0.581999 102.016 0.581999C102.544 0.581999 102.976 0.743999 103.312 1.068C103.66 1.38 103.834 1.776 103.834 2.256C103.834 2.724 103.66 3.12 103.312 3.444C102.976 3.756 102.544 3.912 102.016 3.912ZM103.546 4.956V15H100.468V4.956H103.546ZM111.374 12.39V15H109.808C108.692 15 107.822 14.73 107.198 14.19C106.574 13.638 106.262 12.744 106.262 11.508V7.512H105.038V4.956H106.262V2.508H109.34V4.956H111.356V7.512H109.34V11.544C109.34 11.844 109.412 12.06 109.556 12.192C109.7 12.324 109.94 12.39 110.276 12.39H111.374ZM112.477 9.96C112.477 8.928 112.669 8.022 113.053 7.242C113.449 6.462 113.983 5.862 114.655 5.442C115.327 5.022 116.077 4.812 116.905 4.812C117.613 4.812 118.231 4.956 118.759 5.244C119.299 5.532 119.713 5.91 120.001 6.378V4.956H123.079V15H120.001V13.578C119.701 14.046 119.281 14.424 118.741 14.712C118.213 15 117.595 15.144 116.887 15.144C116.071 15.144 115.327 14.934 114.655 14.514C113.983 14.082 113.449 13.476 113.053 12.696C112.669 11.904 112.477 10.992 112.477 9.96ZM120.001 9.978C120.001 9.21 119.785 8.604 119.353 8.16C118.933 7.716 118.417 7.494 117.805 7.494C117.193 7.494 116.671 7.716 116.239 8.16C115.819 8.592 115.609 9.192 115.609 9.96C115.609 10.728 115.819 11.34 116.239 11.796C116.671 12.24 117.193 12.462 117.805 12.462C118.417 12.462 118.933 12.24 119.353 11.796C119.785 11.352 120.001 10.746 120.001 9.978ZM128.383 1.68V15H125.305V1.68H128.383Z" fill="#23155B"/>
</svg>
